<svg width="265" height="295" viewBox="0 0 265 295" fill="none" xmlns="http://www.w3.org/2000/svg">
<rect width="253" height="295" rx="64" fill="#C4C4C4"/>
<rect x="9" y="11" width="235" height="274" rx="60" fill="black"/>
<rect x="33" y="69" width="187" height="193" fill="#476985"/>
<rect x="33" y="34" width="187" height="228" stroke="#BA607D" stroke-width="3"/>
<path d="M47.2656 51.0708H42.644V54.8501H48.0127V56H41.2378V45.3359H47.9395V46.4932H42.644V49.9209H47.2656V51.0708ZM50.8252 48.0752L50.8618 48.9541C51.4429 48.2705 52.2266 47.9287 53.2129 47.9287C54.3213 47.9287 55.0757 48.3535 55.4761 49.2031C55.7397 48.8223 56.0815 48.5146 56.5015 48.2803C56.9263 48.0459 57.4268 47.9287 58.0029 47.9287C59.7412 47.9287 60.625 48.8491 60.6543 50.6899V56H59.2993V50.7705C59.2993 50.2041 59.1699 49.7817 58.9111 49.5034C58.6523 49.2202 58.2178 49.0786 57.6074 49.0786C57.1045 49.0786 56.687 49.23 56.355 49.5327C56.0229 49.8306 55.8301 50.2334 55.7764 50.7412V56H54.4141V50.8071C54.4141 49.6548 53.8501 49.0786 52.7222 49.0786C51.8335 49.0786 51.2256 49.457 50.8984 50.2139V56H49.5435V48.0752H50.8252ZM62.3462 51.9644C62.3462 51.188 62.4976 50.4897 62.8003 49.8696C63.1079 49.2495 63.5327 48.771 64.0747 48.4341C64.6216 48.0972 65.2441 47.9287 65.9424 47.9287C67.0215 47.9287 67.8931 48.3022 68.5571 49.0493C69.2261 49.7964 69.5605 50.79 69.5605 52.0303V52.1255C69.5605 52.897 69.4116 53.5903 69.1138 54.2056C68.8208 54.8159 68.3984 55.292 67.8467 55.6338C67.2998 55.9756 66.6699 56.1465 65.957 56.1465C64.8828 56.1465 64.0112 55.7729 63.3423 55.0259C62.6782 54.2788 62.3462 53.29 62.3462 52.0596V51.9644ZM63.7085 52.1255C63.7085 53.0044 63.9111 53.71 64.3164 54.2422C64.7266 54.7744 65.2734 55.0405 65.957 55.0405C66.6455 55.0405 67.1924 54.772 67.5977 54.2349C68.0029 53.6929 68.2056 52.936 68.2056 51.9644C68.2056 51.0952 67.998 50.3921 67.583 49.855C67.1729 49.313 66.626 49.042 65.9424 49.042C65.2734 49.042 64.7339 49.3081 64.3237 49.8403C63.9136 50.3726 63.7085 51.1343 63.7085 52.1255ZM72.6587 48.0752V56.9155C72.6587 58.439 71.9678 59.2007 70.5859 59.2007C70.2881 59.2007 70.0122 59.1567 69.7583 59.0688V57.9849C69.9146 58.0239 70.1196 58.0435 70.3735 58.0435C70.6763 58.0435 70.9058 57.9604 71.062 57.7944C71.2231 57.6333 71.3037 57.3501 71.3037 56.9448V48.0752H72.6587ZM71.1646 45.9731C71.1646 45.7583 71.2305 45.5752 71.3623 45.4238C71.499 45.2676 71.6968 45.1895 71.9556 45.1895C72.2192 45.1895 72.4194 45.2651 72.5562 45.4165C72.6929 45.5679 72.7612 45.7534 72.7612 45.9731C72.7612 46.1929 72.6929 46.376 72.5562 46.5225C72.4194 46.6689 72.2192 46.7422 71.9556 46.7422C71.6919 46.7422 71.4941 46.6689 71.3623 46.5225C71.2305 46.376 71.1646 46.1929 71.1646 45.9731ZM76.3208 56H74.9658V48.0752H76.3208V56ZM74.856 45.9731C74.856 45.7534 74.9219 45.5679 75.0537 45.4165C75.1904 45.2651 75.3906 45.1895 75.6543 45.1895C75.918 45.1895 76.1182 45.2651 76.2549 45.4165C76.3916 45.5679 76.46 45.7534 76.46 45.9731C76.46 46.1929 76.3916 46.376 76.2549 46.5225C76.1182 46.6689 75.918 46.7422 75.6543 46.7422C75.3906 46.7422 75.1904 46.6689 75.0537 46.5225C74.9219 46.376 74.856 46.1929 74.856 45.9731ZM86.0767 46.4932H82.6489V56H81.25V46.4932H77.8296V45.3359H86.0767V46.4932ZM89.5117 54.0151L91.3574 48.0752H92.8076L89.6216 57.2231C89.1284 58.5415 88.3447 59.2007 87.2705 59.2007L87.0142 59.1787L86.5088 59.0835V57.9849L86.875 58.0142C87.334 58.0142 87.6904 57.9214 87.9443 57.7358C88.2031 57.5503 88.4155 57.2109 88.5815 56.7178L88.8818 55.9121L86.0547 48.0752H87.5342L89.5117 54.0151ZM100.718 52.1255C100.718 53.3315 100.442 54.3032 99.8901 55.0405C99.3384 55.7778 98.5913 56.1465 97.6489 56.1465C96.687 56.1465 95.9302 55.8413 95.3784 55.231V59.0469H94.0234V48.0752H95.2612L95.3271 48.9541C95.8789 48.2705 96.6455 47.9287 97.627 47.9287C98.5791 47.9287 99.3311 48.2876 99.8828 49.0054C100.439 49.7231 100.718 50.7217 100.718 52.001V52.1255ZM99.3628 51.9717C99.3628 51.0781 99.1724 50.3726 98.7915 49.855C98.4106 49.3374 97.8882 49.0786 97.2241 49.0786C96.4038 49.0786 95.7886 49.4424 95.3784 50.1699V53.9565C95.7837 54.6792 96.4038 55.0405 97.2388 55.0405C97.8882 55.0405 98.4033 54.7842 98.7842 54.2715C99.1699 53.7539 99.3628 52.9873 99.3628 51.9717ZM105.735 56.1465C104.661 56.1465 103.787 55.7949 103.113 55.0918C102.439 54.3838 102.102 53.439 102.102 52.2573V52.0083C102.102 51.2222 102.251 50.5215 102.549 49.9062C102.852 49.2861 103.271 48.8027 103.809 48.4561C104.351 48.1045 104.937 47.9287 105.566 47.9287C106.597 47.9287 107.397 48.2681 107.969 48.9468C108.54 49.6255 108.826 50.5972 108.826 51.8618V52.4258H103.457C103.477 53.207 103.704 53.8394 104.138 54.3228C104.578 54.8013 105.134 55.0405 105.808 55.0405C106.287 55.0405 106.692 54.9429 107.024 54.7476C107.356 54.5522 107.646 54.2935 107.896 53.9712L108.723 54.6157C108.059 55.6362 107.063 56.1465 105.735 56.1465ZM105.566 49.042C105.02 49.042 104.561 49.2422 104.189 49.6426C103.818 50.0381 103.589 50.5947 103.501 51.3125H107.471V51.21C107.432 50.5215 107.246 49.9893 106.914 49.6133C106.582 49.2324 106.133 49.042 105.566 49.042Z" fill="#1E8BEB"/>
<path d="M183.249 51.4517C183.249 53.0386 182.978 54.2178 182.436 54.9893C181.894 55.7607 181.047 56.1465 179.895 56.1465C178.757 56.1465 177.915 55.7705 177.368 55.0186C176.821 54.2617 176.538 53.1338 176.518 51.6348V49.8257C176.518 48.2583 176.789 47.0938 177.331 46.332C177.873 45.5703 178.723 45.1895 179.88 45.1895C181.027 45.1895 181.872 45.5581 182.414 46.2954C182.956 47.0278 183.234 48.1606 183.249 49.6938V51.4517ZM181.894 49.5986C181.894 48.4512 181.733 47.6162 181.411 47.0938C181.088 46.5664 180.578 46.3027 179.88 46.3027C179.187 46.3027 178.681 46.564 178.364 47.0864C178.046 47.6089 177.883 48.4121 177.873 49.4961V51.6641C177.873 52.8164 178.039 53.6685 178.371 54.2202C178.708 54.7671 179.216 55.0405 179.895 55.0405C180.563 55.0405 181.059 54.7817 181.381 54.2642C181.708 53.7466 181.879 52.9312 181.894 51.8179V49.5986ZM191.672 51.4517C191.672 53.0386 191.401 54.2178 190.859 54.9893C190.317 55.7607 189.47 56.1465 188.317 56.1465C187.18 56.1465 186.337 55.7705 185.791 55.0186C185.244 54.2617 184.96 53.1338 184.941 51.6348V49.8257C184.941 48.2583 185.212 47.0938 185.754 46.332C186.296 45.5703 187.146 45.1895 188.303 45.1895C189.45 45.1895 190.295 45.5581 190.837 46.2954C191.379 47.0278 191.657 48.1606 191.672 49.6938V51.4517ZM190.317 49.5986C190.317 48.4512 190.156 47.6162 189.833 47.0938C189.511 46.5664 189.001 46.3027 188.303 46.3027C187.609 46.3027 187.104 46.564 186.787 47.0864C186.469 47.6089 186.306 48.4121 186.296 49.4961V51.6641C186.296 52.8164 186.462 53.6685 186.794 54.2202C187.131 54.7671 187.639 55.0405 188.317 55.0405C188.986 55.0405 189.482 54.7817 189.804 54.2642C190.131 53.7466 190.302 52.9312 190.317 51.8179V49.5986ZM193.503 55.2896C193.503 55.0552 193.571 54.8599 193.708 54.7036C193.85 54.5474 194.06 54.4692 194.338 54.4692C194.616 54.4692 194.826 54.5474 194.968 54.7036C195.114 54.8599 195.188 55.0552 195.188 55.2896C195.188 55.5142 195.114 55.7021 194.968 55.8535C194.826 56.0049 194.616 56.0806 194.338 56.0806C194.06 56.0806 193.85 56.0049 193.708 55.8535C193.571 55.7021 193.503 55.5142 193.503 55.2896ZM193.51 48.8223C193.51 48.5879 193.579 48.3926 193.715 48.2363C193.857 48.0801 194.067 48.002 194.345 48.002C194.624 48.002 194.833 48.0801 194.975 48.2363C195.122 48.3926 195.195 48.5879 195.195 48.8223C195.195 49.0469 195.122 49.2349 194.975 49.3862C194.833 49.5376 194.624 49.6133 194.345 49.6133C194.067 49.6133 193.857 49.5376 193.715 49.3862C193.579 49.2349 193.51 49.0469 193.51 48.8223ZM203.728 51.4517C203.728 53.0386 203.457 54.2178 202.915 54.9893C202.373 55.7607 201.525 56.1465 200.373 56.1465C199.235 56.1465 198.393 55.7705 197.846 55.0186C197.299 54.2617 197.016 53.1338 196.997 51.6348V49.8257C196.997 48.2583 197.268 47.0938 197.81 46.332C198.352 45.5703 199.201 45.1895 200.358 45.1895C201.506 45.1895 202.351 45.5581 202.893 46.2954C203.435 47.0278 203.713 48.1606 203.728 49.6938V51.4517ZM202.373 49.5986C202.373 48.4512 202.211 47.6162 201.889 47.0938C201.567 46.5664 201.057 46.3027 200.358 46.3027C199.665 46.3027 199.16 46.564 198.842 47.0864C198.525 47.6089 198.361 48.4121 198.352 49.4961V51.6641C198.352 52.8164 198.518 53.6685 198.85 54.2202C199.187 54.7671 199.694 55.0405 200.373 55.0405C201.042 55.0405 201.538 54.7817 201.86 54.2642C202.187 53.7466 202.358 52.9312 202.373 51.8179V49.5986ZM212.15 51.4517C212.15 53.0386 211.879 54.2178 211.337 54.9893C210.795 55.7607 209.948 56.1465 208.796 56.1465C207.658 56.1465 206.816 55.7705 206.269 55.0186C205.722 54.2617 205.439 53.1338 205.419 51.6348V49.8257C205.419 48.2583 205.69 47.0938 206.232 46.332C206.774 45.5703 207.624 45.1895 208.781 45.1895C209.929 45.1895 210.773 45.5581 211.315 46.2954C211.857 47.0278 212.136 48.1606 212.15 49.6938V51.4517ZM210.795 49.5986C210.795 48.4512 210.634 47.6162 210.312 47.0938C209.99 46.5664 209.479 46.3027 208.781 46.3027C208.088 46.3027 207.583 46.564 207.265 47.0864C206.948 47.6089 206.784 48.4121 206.774 49.4961V51.6641C206.774 52.8164 206.94 53.6685 207.272 54.2202C207.609 54.7671 208.117 55.0405 208.796 55.0405C209.465 55.0405 209.96 54.7817 210.283 54.2642C210.61 53.7466 210.781 52.9312 210.795 51.8179V49.5986Z" fill="white"/>
<rect x="247" y="69" width="18" height="52" rx="9" fill="#C4C4C4"/>
</svg>
